HIERARCHY
ROOT hip
{
  OFFSET 0 0 0
  CHANNELS 6 Xposition Yposition Zposition Zrotation Yrotation Xrotation
  JOINT abdomen
  {
    OFFSET 0 20.6881 -0.73152
    CHANNELS 3 Zrotation Xrotation Yrotation
    JOINT chest
    {
      OFFSET 0 11.7043 -0.48768
      CHANNELS 3 Zrotation Xrotation Yrotation
      JOINT neck
      {
        OFFSET 0 22.1894 -2.19456
        CHANNELS 3 Zrotation Xrotation Yrotation
        JOINT head
        {
          OFFSET -0.24384 7.07133 1.2192
          CHANNELS 3 Zrotation Xrotation Yrotation
          JOINT leftEye
          {
            OFFSET 4.14528 8.04674 8.04672
            CHANNELS 3 Zrotation Xrotation Yrotation
            End Site
            {
              OFFSET 1 0 0
            }
          }
          JOINT rightEye
          {
            OFFSET -3.6576 8.04674 8.04672
            CHANNELS 3 Zrotation Xrotation Yrotation
            End Site
            {
              OFFSET 1 0 0
            }
          }
        }
      }
      JOINT rCollar
      {
        OFFSET -2.68224 19.2634 -4.8768
        CHANNELS 3 Zrotation Xrotation Yrotation
        JOINT rShldr
        {
          OFFSET -8.77824 -1.95073 1.46304
          CHANNELS 3 Zrotation Xrotation Yrotation
          JOINT rForeArm
          {
            OFFSET -28.1742 -1.7115 0.48768
            CHANNELS 3 Zrotation Xrotation Yrotation
            JOINT rHand
            {
              OFFSET -22.5879 0.773209 7.07136
              CHANNELS 3 Zrotation Xrotation Yrotation
              JOINT rThumb1
              {
                OFFSET -1.2192 -0.487915 3.41376
                CHANNELS 3 Zrotation Xrotation Yrotation
                JOINT rThumb2
                {
                  OFFSET -3.37035 -0.52449 3.41376
                  CHANNELS 3 Zrotation Xrotation Yrotation
                  End Site
                  {
                    OFFSET -1.78271 -1.18214 1.43049
                  }
                }
              }
              JOINT rIndex1
              {
                OFFSET -7.75947 0.938293 5.60832
                CHANNELS 3 Zrotation Xrotation Yrotation
                JOINT rIndex2
                {
                  OFFSET -2.54057 -0.884171 1.56538
                  CHANNELS 3 Zrotation Xrotation Yrotation
                  End Site
                  {
                    OFFSET -1.62519 -0.234802 1.16502
                  }
                }
              }
              JOINT rMid1
              {
                OFFSET -8.24714 1.18213 3.41376
                CHANNELS 3 Zrotation Xrotation Yrotation
                JOINT rMid2
                {
                  OFFSET -3.10165 -0.590103 1.0647
                  CHANNELS 3 Zrotation Xrotation Yrotation
                  End Site
                  {
                    OFFSET -2.48547 -0.328903 0.83742
                  }
                }
              }
              JOINT rRing1
              {
                OFFSET -8.82822 0.546677 1.51678
                CHANNELS 3 Zrotation Xrotation Yrotation
                JOINT rRing2
                {
                  OFFSET -2.60934 -0.819778 -0.0198488
                  CHANNELS 3 Zrotation Xrotation Yrotation
                  End Site
                  {
                    OFFSET -2.33842 -0.294052 0.168128
                  }
                }
              }
              JOINT rPinky1
              {
                OFFSET -8.27202 -0.0477905 -0.4584
                CHANNELS 3 Zrotation Xrotation Yrotation
                JOINT rPinky2
                {
                  OFFSET -1.82734 -0.647385 -0.700984
                  CHANNELS 3 Zrotation Xrotation Yrotation
                  End Site
                  {
                    OFFSET -1.69225 -0.51767 -0.607171
                  }
                }
              }
            }
          }
        }
      }
      JOINT lCollar
      {
        OFFSET 2.68224 19.2634 -4.8768
        CHANNELS 3 Zrotation Xrotation Yrotation
        JOINT lShldr
        {
          OFFSET 8.77824 -1.95073 1.46304
          CHANNELS 3 Zrotation Xrotation Yrotation
          JOINT lForeArm
          {
            OFFSET 28.1742 -1.7115 0.48768
            CHANNELS 3 Zrotation Xrotation Yrotation
            JOINT lHand
            {
              OFFSET 22.5879 0.773209 7.07136
              CHANNELS 3 Zrotation Xrotation Yrotation
              JOINT lThumb1
              {
                OFFSET 1.2192 -0.487915 3.41376
                CHANNELS 3 Zrotation Xrotation Yrotation
                JOINT lThumb2
                {
                  OFFSET 3.37035 -0.52449 3.41376
                  CHANNELS 3 Zrotation Xrotation Yrotation
                  End Site
                  {
                    OFFSET 1.78271 -1.18214 1.43049
                  }
                }
              }
              JOINT lIndex1
              {
                OFFSET 7.75947 0.938293 5.60832
                CHANNELS 3 Zrotation Xrotation Yrotation
                JOINT lIndex2
                {
                  OFFSET 2.54057 -0.884171 1.56538
                  CHANNELS 3 Zrotation Xrotation Yrotation
                  End Site
                  {
                    OFFSET 1.62519 -0.234802 1.16502
                  }
                }
              }
              JOINT lMid1
              {
                OFFSET 8.24714 1.18213 3.41376
                CHANNELS 3 Zrotation Xrotation Yrotation
                JOINT lMid2
                {
                  OFFSET 3.10165 -0.590103 1.0647
                  CHANNELS 3 Zrotation Xrotation Yrotation
                  End Site
                  {
                    OFFSET 2.48547 -0.328903 0.83742
                  }
                }
              }
              JOINT lRing1
              {
                OFFSET 8.82822 0.546677 1.51678
                CHANNELS 3 Zrotation Xrotation Yrotation
                JOINT lRing2
                {
                  OFFSET 2.60934 -0.819778 -0.0198488
                  CHANNELS 3 Zrotation Xrotation Yrotation
                  End Site
                  {
                    OFFSET 2.33842 -0.294052 0.168128
                  }
                }
              }
              JOINT lPinky1
              {
                OFFSET 8.27202 -0.0477905 -0.4584
                CHANNELS 3 Zrotation Xrotation Yrotation
                JOINT lPinky2
                {
                  OFFSET 1.82734 -0.647385 -0.700984
                  CHANNELS 3 Zrotation Xrotation Yrotation
                  End Site
                  {
                    OFFSET 1.69225 -0.51767 -0.607171
                  }
                }
              }
            }
          }
        }
      }
    }
  }
  JOINT rButtock
  {
    OFFSET -8.77824 4.35084 1.2192
    CHANNELS 3 Zrotation Xrotation Yrotation
    JOINT rThigh
    {
      OFFSET 0 -1.70687 -2.19456
      CHANNELS 3 Zrotation Xrotation Yrotation
      JOINT rShin
      {
        OFFSET 0 -36.8199 0.73152
        CHANNELS 3 Zrotation Xrotation Yrotation
        JOINT rFoot
        {
          OFFSET 0.73152 -45.1104 -5.12064
          CHANNELS 3 Zrotation Xrotation Yrotation
          End Site
          {
            OFFSET -1.1221 -3.69964 12.103
          }
        }
      }
    }
  }
  JOINT lButtock
  {
    OFFSET 8.77824 4.35084 1.2192
    CHANNELS 3 Zrotation Xrotation Yrotation
    JOINT lThigh
    {
      OFFSET 0 -1.70687 -2.19456
      CHANNELS 3 Zrotation Xrotation Yrotation
      JOINT lShin
      {
        OFFSET 0 -36.8199 0.73152
        CHANNELS 3 Zrotation Xrotation Yrotation
        JOINT lFoot
        {
          OFFSET -0.73152 -45.1104 -5.12064
          CHANNELS 3 Zrotation Xrotation Yrotation
          End Site
          {
            OFFSET 1.1221 -3.69964 12.103
          }
        }
      }
    }
  }
}
MOTION
Frames:	4
Frame Time:	0.03333
-9.148900056054725 61.336498935494355 -13.680999935109813 -0.5679998397827148 -44.701995849609375 7.708990097045898 -6.5858001708984375 13.059601783752441 7.6715803146362305 -2.2687997817993164 -12.10890007019043 1.7625598907470703 0.9530929923057556 14.691699028015137 14.827899932861328 -0.834494948387146 -21.977800369262695 28.850500106811523 -0.0 0.0 -0.0 -0.0 0.0 -0.0 -3.4010798734621095e-14 2.0513999570218044e-13 7.190039579343943e-13 51.39169692993164 -25.24260139465332 -5.04148006439209 -28.431499481201172 -35.333900451660156 75.89850616455078 -1.6622999906539917 33.98360061645508 5.4362101554870605 2.0867298999860395e-09 2.9429200743003037e-10 -2.1866297661432554e-09 3.5563101352664717e-09 4.95515017906456e-10 -3.817539617756438e-09 2.0867298999860395e-09 2.9429500503219685e-10 -2.1866499722023036e-09 7.730909824371338 5.474879741668701 0.4173140823841095 2.086719907978818e-09 2.942929788751769e-10 -2.1866297661432554e-09 2.9055399894714355 0.9651829600334167 0.10290199518203735 2.086739891993261e-09 2.9429200743003037e-10 -2.1866297661432554e-09 10.27859878540039 0.73180091381073 0.025912316516041756 2.086719907978818e-09 2.942910082293082e-10 -2.1866199961806387e-09 2.221669912338257 -0.733487069606781 -0.208919957280159 -3.432369948160041e-14 2.0514899458021207e-13 7.187560008975469e-13 51.93009948730469 70.28379821777344 -123.833984375 27.838104248046875 -41.1963005065918 -86.0905990600586 109.45199584960938 -80.97693634033203 117.74400329589844 -5.487880150312208e-10 1.9753800817312595e-09 -4.048930080102764e-09 -6.267010244087601e-10 3.027400108379652e-09 -6.8666397012862035e-09 -5.48790957122236e-10 1.9753800817312595e-09 -4.048919866050937e-09 -7.730909824371338 5.474879741668701 -0.4173140823841095 -5.48784961917903e-10 1.9753800817312595e-09 -4.048930080102764e-09 -2.9055399894714355 0.9651829600334167 -0.10290199518203735 -5.487960086369981e-10 1.9753800817312595e-09 -4.048919866050937e-09 -10.27859878540039 0.73180091381073 -0.025912316516041756 -5.487890142319429e-10 1.9753800817312595e-09 -4.048930080102764e-09 -2.221669912338257 -0.733487069606781 0.208919957280159 -2.0321699480147914e-16 0.0 -3.8825099822884138e-19 -86.39079284667969 -43.944698333740234 -78.36900329589844 -5.828180313110352 80.80742645263672 5.983580589294434 -1.3516597747802734 17.81879997253418 4.895370006561279 2.0321699480147914e-16 0.0 3.8825099822884138e-19 23.365798950195312 -51.001895904541016 34.60599136352539 159.18699645996094 87.41925811767578 -161.28199768066406 22.471601486206055 -27.989398956298828 31.741498947143555
-9.236800055000293 61.27129794967742 -13.707999934700558 -0.5689834952354431 -44.631996154785156 7.6919965744018555 -6.542419910430908 13.045100212097168 7.476639747619629 -2.214790105819702 -12.133100509643555 1.7136999368667603 0.9214069843292236 14.763602256774902 14.842899322509766 -0.8363038897514343 -21.917598724365234 28.87259864807129 -0.0 0.0 -0.0 -0.0 0.0 -0.0 -5.116919596912829e-14 -8.518310162059992e-14 6.382539895904982e-13 51.36439514160156 -25.117801666259766 -4.863088607788086 -28.43059539794922 -35.25599670410156 75.7688980102539 -1.6699200868606567 34.04990005493164 5.449840068817139 2.4424098299391517e-09 1.2224299350549472e-10 -2.0051500460027682e-09 4.169439904444516e-09 1.8590098904702756e-10 -3.5133198572623314e-09 2.4424098299391517e-09 1.2224798950910554e-10 -2.00516003800999e-09 7.730909824371338 5.474879741668701 0.4173140823841095 2.4424098299391517e-09 1.2224500578472686e-10 -2.0051398319509417e-09 2.9055399894714355 0.9651829600334167 0.10290199518203735 2.4424200439909782e-09 1.2224399270621689e-10 -2.0051500460027682e-09 10.27859878540039 0.73180091381073 0.025912316516041756 2.4424098299391517e-09 1.2224299350549472e-10 -2.0051398319509417e-09 2.221669912338257 -0.733487069606781 -0.208919957280159 -5.135429638502588e-14 -8.517629147570399e-14 6.380299934216627e-13 52.00979995727539 70.39350128173828 -123.97499084472656 27.84109878540039 -41.18199157714844 -86.06559753417969 110.21499633789062 -80.91271209716797 118.51800537109375 7.004669760890536e-11 1.3003499388375417e-09 -3.66998986756073e-09 4.023289756904802e-10 1.9536698925293194e-09 -6.19777962285184e-09 7.004449797953782e-11 1.3003499388375417e-09 -3.66998986756073e-09 -7.730909824371338 5.474879741668701 -0.4173140823841095 7.005000052240362e-11 1.3003499388375417e-09 -3.66998986756073e-09 -2.9055399894714355 0.9651829600334167 -0.10290199518203735 7.003829460838773e-11 1.3003499388375417e-09 -3.6699800975981134e-09 -10.27859878540039 0.73180091381073 -0.025912316516041756 7.00489041771668e-11 1.3003499388375417e-09 -3.66998986756073e-09 -2.221669912338257 -0.733487069606781 0.208919957280159 -2.0321699480147914e-16 0.0 -3.8825099822884138e-19 -86.5624008178711 -43.91139602661133 -78.48500061035156 -6.023580074310303 81.0603256225586 6.176590442657471 -1.3386499881744385 17.80520248413086 4.816999912261963 2.0321699480147914e-16 0.0 3.8825099822884138e-19 23.570796966552734 -50.97819900512695 34.73270034790039 160.05899047851562 87.30542755126953 -162.15899658203125 22.448497772216797 -28.0502986907959 31.676795959472656
-9.300100053762895 61.20970330374224 -13.736999934075707 -0.4749999940395355 -44.553009033203125 7.585992336273193 -6.566639423370361 13.044599533081055 7.29223108291626 -2.142199993133545 -12.16260051727295 1.6667100191116333 0.8863860368728638 14.826297760009766 14.856400489807129 -0.8386108875274658 -21.87200355529785 28.891698837280273 -0.0 0.0 -0.0 -0.0 0.0 -0.0 -6.277729800840265e-14 -3.1328501533429975e-13 4.930849565459861e-13 51.33349609375 -24.984603881835938 -4.6963210105896 -28.429298400878906 -35.18220520019531 75.64679718017578 -1.6726001501083374 34.073299407958984 5.454639911651611 2.1736799027394227e-09 -2.8918598418692376e-11 -1.4352500299352755e-09 3.714979879276825e-09 -8.259579825642405e-11 -2.523720121772044e-09 2.1736799027394227e-09 -2.891399966675756e-11 -1.4352599109201947e-09 7.730909824371338 5.474879741668701 0.4173140823841095 2.1736799027394227e-09 -2.891660001724805e-11 -1.4352500299352755e-09 2.9055399894714355 0.9651829600334167 0.10290199518203735 2.1736799027394227e-09 -2.8916797775724312e-11 -1.4352500299352755e-09 10.27859878540039 0.73180091381073 0.025912316516041756 2.173669910732201e-09 -2.8916797775724312e-11 -1.4352399269057514e-09 2.221669912338257 -0.733487069606781 -0.208919957280159 -6.280909901337436e-14 -3.1328501533429975e-13 4.928870354393988e-13 52.095401763916016 70.49940490722656 -124.09500122070312 27.841596603393555 -41.178707122802734 -86.06098937988281 111.1939926147461 -80.8265151977539 119.50898742675781 5.245640033457732e-10 4.972829925620204e-10 -2.662440046208303e-09 1.1032700308888366e-09 7.010769742521461e-10 -4.4763499573718946e-09 5.245620049443289e-10 4.97280994160576e-10 -2.66244981617092e-09 -7.730909824371338 5.474879741668701 -0.4173140823841095 5.245680001486619e-10 4.972829925620204e-10 -2.662440046208303e-09 -2.9055399894714355 0.9651829600334167 -0.10290199518203735 5.245560097399959e-10 4.972829925620204e-10 -2.662440046208303e-09 -10.27859878540039 0.73180091381073 -0.025912316516041756 5.24569943038955e-10 4.972849909634647e-10 -2.66244981617092e-09 -2.221669912338257 -0.733487069606781 0.208919957280159 -2.0321699480147914e-16 0.0 -3.8825099822884138e-19 -86.74149322509766 -43.90089416503906 -78.49659729003906 -6.198509216308594 81.27552795410156 6.350949764251709 -1.3506802320480347 17.816999435424805 4.8902106285095215 2.0321699480147914e-16 0.0 3.8825099822884138e-19 23.686599731445312 -50.94640350341797 34.81399917602539 160.7010040283203 87.21405792236328 -162.8050079345703 22.427900314331055 -28.098201751708984 31.624996185302734
-9.388900056863639 61.231798965707235 -13.779999933609211 -0.39500489830970764 -44.507991790771484 7.529001235961914 -6.6115498542785645 13.083900451660156 7.218870639801025 -2.1269102096557617 -12.18690013885498 1.6436200141906738 0.8683000206947327 14.777499198913574 14.86819839477539 -0.8082979321479797 -21.821002960205078 28.915002822875977 -0.0 0.0 -0.0 -0.0 0.0 -0.0 -9.722489469326384e-14 -1.1141599660013587e-13 -8.560779716408964e-14 51.33339309692383 -24.976299285888672 -4.611971378326416 -28.429798126220703 -35.160701751708984 75.60539245605469 -1.6592098474502563 33.957000732421875 5.430729866027832 -1.3386299846374072e-09 1.1477000599890985e-10 4.768920258690912e-10 -2.299189949539482e-09 2.002919913257628e-10 8.570380516381704e-10 -1.3386299846374072e-09 1.1477199746146027e-10 4.768809791499962e-10 7.730909824371338 5.474879741668701 0.4173140823841095 -1.3386299846374072e-09 1.1477099132184421e-10 4.768979655622729e-10 2.9055399894714355 0.9651829600334167 0.10290199518203735 -1.3386199926301856e-09 1.1477099132184421e-10 4.768929695586621e-10 10.27859878540039 0.73180091381073 0.025912316516041756 -1.3386299846374072e-09 1.1477299666218244e-10 4.76903017077035e-10 2.221669912338257 -0.733487069606781 -0.208919957280159 -9.726739541842527e-14 -1.1142199359340244e-13 -8.583769545850162e-14 52.2505989074707 70.52971649169922 -124.23300170898438 27.83820152282715 -41.193695068359375 -86.08869934082031 110.87200164794922 -80.85541534423828 119.18299865722656 -4.5906095591519147e-10 -1.6103800237754484e-10 1.1358100016067851e-09 -8.661180106450672e-10 -2.0005698486702528e-10 1.8887198471873035e-09 -4.590640090285092e-10 -1.6104000077898917e-10 1.1358100016067851e-09 -7.730909824371338 5.474879741668701 -0.4173140823841095 -4.590579860686006e-10 -1.6103698929903487e-10 1.1358199936140068e-09 -2.9055399894714355 0.9651829600334167 -0.10290199518203735 -4.5906800583139784e-10 -1.6103800237754484e-10 1.1358100016067851e-09 -10.27859878540039 0.73180091381073 -0.025912316516041756 -4.5905501622200973e-10 -1.6103600397610052e-10 1.1358000095995635e-09 -2.221669912338257 -0.733487069606781 0.208919957280159 -2.0321699480147914e-16 0.0 -3.8825099822884138e-19 -86.89199829101562 -43.972206115722656 -78.36599731445312 -6.340169429779053 81.44051361083984 6.4958696365356445 -1.4053101539611816 17.831100463867188 5.258049964904785 2.0321699480147914e-16 0.0 3.8825099822884138e-19 23.763200759887695 -50.9308967590332 34.875003814697266 161.20199584960938 87.13794708251953 -163.30699157714844 22.45530128479004 -28.080299377441406 31.66579818725586
